# xmcd
#
# Track frame offsets: 
#        150
#        16409
#        32066
#        46671
#        59090
#        74998
#        88206
#        99179
#        114233
#        126211
#        136038
#        148092
#        160362
#        172916
#        186030
#        201117
#        213822
#        225665
#        233542
#        244266
#
# Disc length: 3448 seconds
#
# Revision: 1
# Processed by: cddbd v1.5.2PL0 Copyright (c) Steve Scherf et al.
# Submitted via: ExactAudioCopyFreeDBPlugin 1.0
#
DISCID=140d7614
DTITLE=Billie Jo Spears - Singles
DYEAR=1979
DGENRE=Country
TTITLE0=Blanket On The Ground
TTITLE1=Silver Wings and Golden Rings
TTITLE2=Another Somebody Done Somebody Wrong Song
TTITLE3=What I've Got In Mind
TTITLE4=Sing Me An Old Fashioned Song
TTITLE5=Every Time Two Fools Collide
TTITLE6=If You Want Me
TTITLE7=Every Time I Sing A Love Song
TTITLE8=Misty Blue
TTITLE9=Never Did Like Whiskey
TTITLE10=I've Got To Go
TTITLE11=Lonely Hearts Club
TTITLE12=Chevrolet
TTITLE13=Love Ain't Gonna Wait For Us
TTITLE14=I Will Survive
TTITLE15=Living Our Love Together
TTITLE16=Rainy Days And Stormy Nights
TTITLE17=Standing Tall
TTITLE18=Your Good Girls Gonna Go Bad
TTITLE19=Any Ole Wind That Blows
EXTD=
EXTT0=
EXTT1=
EXTT2=
EXTT3=
EXTT4=
EXTT5=
EXTT6=
EXTT7=
EXTT8=
EXTT9=
EXTT10=
EXTT11=
EXTT12=
EXTT13=
EXTT14=
EXTT15=
EXTT16=
EXTT17=
EXTT18=
EXTT19=
PLAYORDER=
